<?xml version="1.0" encoding="iso-8859-1"?>
<!-- Generator: Adobe Illustrator 18.0.0, SVG Export Plug-In . SVG Version: 6.00 Build 0)  -->
<!DOCTYPE svg PUBLIC "-//W3C//DTD SVG 1.1//EN" "http://www.w3.org/Graphics/SVG/1.1/DTD/svg11.dtd">
<svg version="1.1" id="Capa_1" xmlns="http://www.w3.org/2000/svg" xmlns:xlink="http://www.w3.org/1999/xlink" x="0px" y="0px"
	 viewBox="0 0 297 297" style="enable-background:new 0 0 297 297;" xml:space="preserve">
<path d="M273.272,90.3c-12.094,0-22.097,9.107-23.543,20.829c-25.794,2.513-42.23,13.708-51.792,23.287
	c-2.884,2.888-5.309,5.773-7.331,8.501c-15.265-27.26-25.156-57.277-29.468-71.831c7.008-4.133,11.723-11.763,11.723-20.48
	c0-13.097-10.639-23.752-23.716-23.752c-13.09,0-23.739,10.655-23.739,23.752c0,8.721,4.724,16.354,11.741,20.484
	c-4.319,14.559-14.22,44.571-29.484,71.827c-2.021-2.729-4.447-5.613-7.331-8.501c-9.721-9.737-26.542-21.141-53.075-23.402
	C45.758,99.347,35.782,90.3,23.73,90.3C10.646,90.3,0,100.957,0,114.056c0,13.099,10.646,23.754,23.73,23.754
	c3.641,0,7.092-0.827,10.178-2.301c12.41,27.988,31.357,80.649,22.324,107.796c-1.171,3.517-0.256,7.393,2.363,10.016
	c2.808,2.81,20.362,16.826,90.549,16.826c70.165,0,87.715-14.018,90.521-16.828c2.618-2.622,3.532-6.497,2.362-10.013
	c-8.968-26.955,9.717-79.203,22.123-107.323c2.81,1.176,5.89,1.827,9.12,1.827c13.084,0,23.728-10.655,23.728-23.754
	C297,100.957,286.355,90.3,273.272,90.3z M149.145,46.445c2.274,0,4.124,1.866,4.124,4.16c0,2.295-1.85,4.162-4.124,4.162
	c-2.287,0-4.147-1.867-4.147-4.162C144.997,48.312,146.857,46.445,149.145,46.445z M23.73,118.218c-2.282,0-4.139-1.867-4.139-4.162
	c0-2.296,1.856-4.164,4.139-4.164c2.28,0,4.135,1.868,4.135,4.164C27.865,116.351,26.011,118.218,23.73,118.218z M221.441,241.614
	c-8.016,3.221-28.456,8.94-72.297,8.94c-43.715,0-64.066-5.66-72.309-9.032c6.268-34.38-12.448-84.697-23.299-109.938
	c34.523,6.373,44.08,32.573,44.502,33.779c1.183,3.553,4.284,6.12,7.995,6.617c3.714,0.487,7.381-1.166,9.454-4.282
	c15.351-23.063,26.521-49.856,33.65-70.024c7.124,20.169,18.289,46.96,33.641,70.024c2.074,3.116,5.739,4.77,9.454,4.282
	c3.71-0.497,6.813-3.064,7.995-6.616c0.104-0.309,9.509-27.271,44.495-33.771C233.862,156.861,215.129,207.238,221.441,241.614z
	 M273.272,118.218c-2.281,0-4.138-1.867-4.138-4.162c0-2.296,1.856-4.164,4.138-4.164c2.281,0,4.137,1.868,4.137,4.164
	C277.408,116.351,275.553,118.218,273.272,118.218z"/>
<g>
</g>
<g>
</g>
<g>
</g>
<g>
</g>
<g>
</g>
<g>
</g>
<g>
</g>
<g>
</g>
<g>
</g>
<g>
</g>
<g>
</g>
<g>
</g>
<g>
</g>
<g>
</g>
<g>
</g>
</svg>
