<?xml version="1.0" encoding="iso-8859-1"?>
<!-- Generator: Adobe Illustrator 19.0.0, SVG Export Plug-In . SVG Version: 6.00 Build 0)  -->
<svg xmlns="http://www.w3.org/2000/svg" xmlns:xlink="http://www.w3.org/1999/xlink" version="1.1" id="Capa_1" x="0px" y="0px" viewBox="0 0 480 480" style="enable-background:new 0 0 480 480;" xml:space="preserve" width="512px" height="512px">
<g>
	<g>
		<path d="M176,104c-30.872,0-56,25.128-56,56s25.128,56,56,56s56-25.128,56-56S206.872,104,176,104z M176,200    c-22.056,0-40-17.944-40-40c0-22.056,17.944-40,40-40c22.056,0,40,17.944,40,40C216,182.056,198.056,200,176,200z" fill="#FFFFFF"/>
	</g>
</g>
<g>
	<g>
		<path d="M304,104c-30.872,0-56,25.128-56,56s25.128,56,56,56s56-25.128,56-56S334.872,104,304,104z M304,200    c-22.056,0-40-17.944-40-40c0-22.056,17.944-40,40-40c22.056,0,40,17.944,40,40C344,182.056,326.056,200,304,200z" fill="#FFFFFF"/>
	</g>
</g>
<g>
	<g>
		<rect x="232" y="336" width="16" height="16" fill="#FFFFFF"/>
	</g>
</g>
<g>
	<g>
		<rect x="232" y="368" width="16" height="16" fill="#FFFFFF"/>
	</g>
</g>
<g>
	<g>
		<rect x="232" y="304" width="16" height="16" fill="#FFFFFF"/>
	</g>
</g>
<g>
	<g>
		<rect x="200" y="336" width="16" height="16" fill="#FFFFFF"/>
	</g>
</g>
<g>
	<g>
		<rect x="200" y="304" width="16" height="16" fill="#FFFFFF"/>
	</g>
</g>
<g>
	<g>
		<rect x="264" y="336" width="16" height="16" fill="#FFFFFF"/>
	</g>
</g>
<g>
	<g>
		<rect x="200" y="368" width="16" height="16" fill="#FFFFFF"/>
	</g>
</g>
<g>
	<g>
		<rect x="264" y="368" width="16" height="16" fill="#FFFFFF"/>
	</g>
</g>
<g>
	<g>
		<rect x="264" y="304" width="16" height="16" fill="#FFFFFF"/>
	</g>
</g>
<g>
	<g>
		<path d="M453.656,82.344l-40-40c-3.128-3.128-8.184-3.128-11.312,0L377.88,66.808C345.616,26.152,295.816,0,240,0    c-55.816,0-105.616,26.152-137.88,66.808L77.656,42.344c-3.128-3.128-8.184-3.128-11.312,0l-40,40    c-3.128,3.128-3.128,8.184,0,11.312l42.304,42.304C65.64,148.832,64,162.224,64,176c0,60.032,31.304,116.32,82,148.496    c-1.304,6.304-2,12.824-2,19.504c0,0.528,0.072,1.04,0.08,1.56l-61.528,13.672l-4.896-4.896c-3.128-3.128-8.184-3.128-11.312,0    l-32,32c-3.128,3.128-3.128,8.184,0,11.312l80,80c1.56,1.568,3.608,2.352,5.656,2.352c2.048,0,4.096-0.784,5.656-2.344l32-32    c3.128-3.128,3.128-8.184,0-11.312l-1.48-1.48l21.416-16.064c16.8,14.424,38.576,23.2,62.408,23.2s45.608-8.776,62.408-23.2    l21.416,16.064l-1.48,1.48c-3.128,3.128-3.128,8.184,0,11.312l32,32c1.56,1.56,3.608,2.344,5.656,2.344    c2.048,0,4.096-0.784,5.656-2.344l80-80c3.128-3.128,3.128-8.184,0-11.312l-32-32c-3.128-3.128-8.184-3.128-11.312,0l-4.896,4.896    l-61.528-13.672c0.008-0.528,0.08-1.04,0.08-1.568c0-6.68-0.696-13.2-2-19.504c50.696-32.176,82-88.464,82-148.496    c0-13.776-1.64-27.168-4.648-40.04l42.304-42.304C456.784,90.528,456.784,85.472,453.656,82.344z M43.312,88L72,59.312    l20.632,20.632c-7.784,11.904-14.16,24.8-18.912,38.464L43.312,88z M120,460.688L51.312,392L72,371.312L140.688,440L120,460.688z     M144.752,421.44L95.96,372.648l49.728-11.048c3.056,16.416,10.248,31.384,20.536,43.736L144.752,421.44z M240,424    c-44.112,0-80-35.888-80-80c0-7.336,1.072-14.408,2.936-21.168c0.544-1.976,1.168-3.92,1.856-5.824    c0.112-0.304,0.216-0.608,0.336-0.912c0.672-1.808,1.408-3.592,2.2-5.336c0.16-0.344,0.336-0.688,0.496-1.032    c0.824-1.728,1.68-3.44,2.616-5.096c0.032-0.056,0.072-0.112,0.104-0.176c2.936-5.152,6.44-9.896,10.384-14.216    c0.472-0.52,0.936-1.056,1.424-1.56c1.048-1.096,2.152-2.144,3.256-3.176c0.584-0.544,1.176-1.088,1.776-1.616    c1.136-0.992,2.288-1.96,3.472-2.88c0.608-0.48,1.24-0.936,1.864-1.392c1.248-0.92,2.504-1.832,3.808-2.68    c0.496-0.328,1.024-0.616,1.528-0.928c4.416-2.736,9.104-5.032,14.008-6.872c0.928-0.344,1.84-0.712,2.784-1.024    c1.2-0.4,2.424-0.744,3.648-1.096c1.168-0.328,2.344-0.632,3.528-0.912c1.104-0.256,2.224-0.496,3.344-0.712    c1.464-0.272,2.944-0.488,4.44-0.68c0.912-0.12,1.816-0.256,2.744-0.344c2.456-0.216,4.936-0.368,7.448-0.368    c2.512,0,4.992,0.152,7.456,0.376c0.92,0.088,1.824,0.232,2.744,0.344c1.488,0.192,2.976,0.408,4.44,0.68    c1.12,0.208,2.24,0.448,3.344,0.712c1.184,0.272,2.36,0.584,3.528,0.912c1.224,0.344,2.448,0.688,3.648,1.096    c0.936,0.312,1.856,0.672,2.776,1.016c4.904,1.84,9.592,4.136,14.008,6.872c0.504,0.312,1.032,0.608,1.528,0.928    c1.304,0.848,2.552,1.76,3.808,2.68c0.624,0.464,1.256,0.92,1.864,1.392c1.184,0.928,2.344,1.888,3.472,2.88    c0.6,0.528,1.192,1.072,1.776,1.616c1.112,1.032,2.208,2.08,3.256,3.176c0.488,0.512,0.944,1.04,1.424,1.56    c3.936,4.328,7.448,9.064,10.384,14.216c0.032,0.056,0.072,0.112,0.104,0.176c0.936,1.656,1.8,3.368,2.624,5.104    c0.16,0.336,0.336,0.672,0.488,1.016c0.8,1.744,1.528,3.528,2.208,5.344c0.112,0.296,0.224,0.6,0.328,0.896    c0.688,1.912,1.312,3.848,1.856,5.832C318.928,329.592,320,336.664,320,344C320,388.112,284.112,424,240,424z M408,371.312    L428.688,392L360,460.688L339.312,440L408,371.312z M334.312,361.6l49.728,11.048l-48.792,48.792l-21.472-16.104    C324.056,392.984,331.256,378.016,334.312,361.6z M329.176,308.648c-0.016-0.04-0.032-0.08-0.048-0.12    c-0.704-1.768-1.488-3.488-2.296-5.208c-0.368-0.792-0.744-1.584-1.136-2.36c-0.784-1.56-1.592-3.096-2.464-4.6    c-0.504-0.88-1.04-1.728-1.568-2.584c-1.704-2.76-3.528-5.416-5.488-7.976c-0.488-0.64-0.944-1.304-1.448-1.928    c-0.968-1.2-2.008-2.336-3.032-3.488c-0.784-0.88-1.56-1.76-2.368-2.608c-1.072-1.12-2.168-2.208-3.288-3.272    c-0.832-0.792-1.68-1.552-2.536-2.312c-1.184-1.048-2.36-2.096-3.592-3.088c-0.712-0.568-1.464-1.088-2.192-1.64    c-2.448-1.848-4.976-3.576-7.592-5.184c-0.888-0.552-1.776-1.112-2.68-1.632c-1.392-0.792-2.808-1.536-4.24-2.256    c-1.024-0.52-2.064-1.016-3.104-1.496c-1.4-0.648-2.8-1.296-4.24-1.872c-1.368-0.552-2.768-1.032-4.16-1.528    c-1.912-0.672-3.84-1.288-5.8-1.84c-1.736-0.488-3.472-0.96-5.248-1.352c-1.12-0.248-2.248-0.448-3.384-0.656    c-1.848-0.344-3.712-0.624-5.584-0.856c-0.976-0.12-1.952-0.248-2.944-0.344c-2.896-0.272-5.8-0.448-8.744-0.448    c-2.944,0-5.848,0.176-8.736,0.44c-0.992,0.088-1.96,0.224-2.944,0.344c-1.88,0.232-3.744,0.512-5.584,0.856    c-1.136,0.208-2.264,0.408-3.384,0.656c-1.768,0.392-3.512,0.864-5.248,1.352c-1.96,0.552-3.888,1.168-5.8,1.84    c-1.392,0.488-2.792,0.976-4.16,1.528c-1.44,0.584-2.84,1.224-4.24,1.872c-1.048,0.48-2.08,0.976-3.104,1.496    c-1.432,0.728-2.848,1.464-4.24,2.256c-0.912,0.52-1.792,1.08-2.68,1.632c-2.616,1.608-5.152,3.336-7.592,5.184    c-0.728,0.552-1.48,1.072-2.192,1.64c-1.232,0.992-2.408,2.04-3.592,3.088c-0.856,0.76-1.712,1.52-2.536,2.312    c-1.12,1.064-2.216,2.152-3.288,3.272c-0.816,0.848-1.592,1.728-2.368,2.608c-1.024,1.152-2.064,2.288-3.032,3.488    c-0.504,0.624-0.96,1.296-1.448,1.928c-1.96,2.56-3.792,5.224-5.488,7.976c-0.528,0.856-1.072,1.704-1.568,2.584    c-0.864,1.504-1.68,3.048-2.464,4.6c-0.392,0.784-0.768,1.568-1.136,2.36c-0.808,1.712-1.592,3.44-2.296,5.208    c-0.016,0.04-0.04,0.08-0.048,0.12C106.896,279.048,80,229.096,80,176c0-88.224,71.776-160,160-160s160,71.776,160,160    C400,229.096,373.104,279.048,329.176,308.648z M406.272,118.416c-4.744-13.664-11.12-26.56-18.912-38.464L408,59.312L436.688,88    L406.272,118.416z" fill="#FFFFFF"/>
	</g>
</g>
<g>
</g>
<g>
</g>
<g>
</g>
<g>
</g>
<g>
</g>
<g>
</g>
<g>
</g>
<g>
</g>
<g>
</g>
<g>
</g>
<g>
</g>
<g>
</g>
<g>
</g>
<g>
</g>
<g>
</g>
</svg>
