<?xml version="1.0" encoding="iso-8859-1"?>
<!-- Generator: Adobe Illustrator 19.0.0, SVG Export Plug-In . SVG Version: 6.00 Build 0)  -->
<svg xmlns="http://www.w3.org/2000/svg" xmlns:xlink="http://www.w3.org/1999/xlink" version="1.1" id="Capa_1" x="0px" y="0px" viewBox="0 0 479.975 479.975" style="enable-background:new 0 0 479.975 479.975;" xml:space="preserve" width="512px" height="512px">
<g>
	<g>
		<path d="M477.632,2.347c-2.304-2.304-5.768-2.976-8.752-1.72l-57.608,24.16c-123.032,51.6-229.36,135.56-308.2,243.008    l-17.44-17.44c-3.128-3.128-8.184-3.128-11.312,0l-24,24c-3.128,3.128-3.128,8.184,0,11.312l43.256,43.256l-46.688,66.68    l-18.032-18.024c-3-3-8.312-3-11.312,0c-23.392,23.392-23.392,61.456,0,84.848c11.696,11.696,27.064,17.544,42.432,17.544    s30.736-5.848,42.432-17.544c1.504-1.504,2.344-3.536,2.344-5.656s-0.84-4.16-2.344-5.656l-18.032-18.032l66.688-46.68    l43.256,43.256c1.56,1.56,3.608,2.344,5.656,2.344c2.048,0,4.096-0.784,5.656-2.344l24-24c3.128-3.128,3.128-8.184,0-11.312    l-17.44-17.44c107.456-78.848,191.416-185.176,243-308.2l24.16-57.608C480.608,8.099,479.928,4.643,477.632,2.347z     M84.928,456.251c-17.136,11.8-40.832,10.088-56.064-5.144c-15.224-15.216-16.936-38.912-5.144-56.048l30.6,30.6l12,12    c0,0,0,0,0.008,0L84.928,456.251z M72.888,421.603l-14.504-14.504l46.68-66.696l34.512,34.512L72.888,421.603z M212.664,400.003    l-12.688,12.688l-42.344-42.344l-48-48l-42.344-42.344l12.688-12.688L212.664,400.003z M440.448,62.515    c-50.784,121.104-133.624,225.68-239.688,302.952l-37.472-37.464l210.344-210.344l-11.312-11.312L151.976,316.691l-37.472-37.472    c77.272-106.056,181.848-188.896,302.96-239.68l39.576-16.6L440.448,62.515z" fill="#FFFFFF"/>
	</g>
</g>
<g>
</g>
<g>
</g>
<g>
</g>
<g>
</g>
<g>
</g>
<g>
</g>
<g>
</g>
<g>
</g>
<g>
</g>
<g>
</g>
<g>
</g>
<g>
</g>
<g>
</g>
<g>
</g>
<g>
</g>
</svg>
